<?xml version="1.0" standalone="no"?>
<!DOCTYPE svg PUBLIC "-//W3C//DTD SVG 20010904//EN"
 "http://www.w3.org/TR/2001/REC-SVG-20010904/DTD/svg10.dtd">
<svg version="1.0" xmlns="http://www.w3.org/2000/svg"
 width="1280.000000pt" height="1188.000000pt" viewBox="0 0 1280.000000 1188.000000"
 preserveAspectRatio="xMidYMid meet">
<metadata>
Created by potrace 1.15, written by Peter Selinger 2001-2017
</metadata>
<g transform="translate(0.000000,1188.000000) scale(0.100000,-0.100000)"
fill="#3f51b5" stroke="none">
<path d="M6665 11482 c-42 -26 -90 -83 -122 -145 -14 -29 -28 -46 -30 -39 -7
19 -92 14 -141 -8 -67 -31 -150 -123 -245 -273 -48 -76 -87 -139 -87 -141 0
-2 -36 -63 -80 -136 -44 -73 -80 -133 -80 -135 0 -1 -49 -87 -110 -190 -60
-103 -110 -189 -110 -191 0 -2 -11 -21 -24 -42 -23 -37 -289 -513 -361 -647
-21 -38 -48 -88 -60 -110 -42 -75 -418 -772 -555 -1030 -29 -55 -65 -122 -80
-150 -15 -27 -78 -144 -140 -260 -338 -629 -644 -1164 -934 -1633 -28 -46 -60
-97 -71 -115 -32 -53 -320 -486 -377 -568 -29 -42 -68 -98 -87 -125 -292 -418
-666 -884 -1041 -1299 -296 -328 -759 -784 -1040 -1024 -194 -166 -230 -199
-280 -261 -121 -148 -129 -308 -24 -463 91 -133 193 -202 624 -417 178 -89
372 -182 430 -207 896 -383 2446 -663 4910 -888 973 -88 2230 -179 4155 -300
703 -44 709 -44 968 -96 214 -42 298 -38 358 18 27 25 49 81 49 125 0 46 -40
183 -57 196 -14 10 -10 11 27 7 121 -12 487 -27 542 -21 35 3 86 17 114 31 98
48 119 145 59 266 -26 51 -518 845 -1198 1934 -420 672 -1090 1757 -1374 2225
-1340 2209 -2310 3973 -3120 5669 -91 190 -180 365 -198 387 -59 71 -146 94
-210 56z m-198 -2336 c-4 -9 8 -17 35 -26 52 -15 133 -91 191 -178 39 -58 206
-340 279 -472 14 -25 87 -152 162 -282 131 -229 389 -678 427 -745 11 -18 28
-49 39 -68 11 -19 29 -51 40 -70 11 -19 28 -50 39 -67 10 -18 123 -215 251
-438 129 -223 250 -434 270 -470 20 -36 46 -82 58 -102 12 -21 32 -55 44 -75
12 -21 38 -67 58 -103 20 -36 88 -155 152 -265 110 -191 325 -565 408 -710 11
-19 29 -51 40 -70 41 -72 60 -104 152 -265 93 -161 435 -757 508 -885 11 -19
29 -51 40 -70 11 -19 28 -50 39 -67 10 -18 123 -215 251 -438 129 -223 250
-434 270 -470 20 -36 46 -82 58 -102 54 -94 68 -118 111 -194 243 -428 348
-604 366 -608 11 -3 -40 -3 -114 -1 -445 14 -773 27 -818 31 l-52 5 -38 77
c-64 128 -138 169 -347 192 -163 17 -188 37 -241 190 -76 219 -220 476 -327
581 -66 65 -119 93 -230 120 -45 12 -91 26 -101 31 -10 5 -36 47 -57 94 -46
99 -81 129 -144 119 -52 -8 -85 -26 -201 -113 -152 -114 -173 -120 -243 -70
-18 13 -148 104 -290 202 -141 99 -360 251 -485 339 -126 87 -230 164 -232
170 -33 111 -77 333 -77 387 0 79 14 110 83 190 333 384 381 462 381 607 1 97
-24 146 -170 345 -150 206 -264 368 -355 507 -108 165 -147 181 -435 181 -102
0 -311 9 -466 21 -359 26 -552 24 -613 -9 -88 -46 -109 -137 -159 -682 -9
-102 -18 -186 -20 -188 -1 -2 -24 12 -51 31 -66 48 -128 71 -191 72 -47 0 -57
-4 -79 -29 -22 -26 -25 -36 -20 -79 9 -74 44 -122 180 -250 137 -129 161 -165
131 -198 -10 -11 -42 -32 -71 -45 -99 -47 -181 -138 -218 -243 -47 -135 -36
-280 40 -506 59 -176 89 -319 105 -490 19 -208 16 -234 -44 -411 -71 -208
-214 -606 -221 -612 -7 -8 -438 141 -626 217 -96 38 -237 97 -314 131 -298
131 -834 420 -926 499 -69 58 -98 150 -66 208 7 12 44 45 82 74 312 234 666
586 991 984 445 544 941 1301 1521 2320 230 404 353 628 1051 1917 89 163 167
306 174 318 15 23 23 27 15 6z m-807 -3543 c98 -28 165 -62 165 -83 0 -8 -39
-42 -87 -75 -48 -33 -134 -97 -192 -142 -57 -46 -107 -83 -111 -83 -3 0 -4 8
-1 18 3 9 15 96 26 193 11 97 23 184 26 193 8 20 49 15 174 -21z m618 -1171
c-3 -121 -8 -224 -12 -230 -9 -15 -170 87 -242 154 -65 60 -69 87 -16 119 18
11 86 55 150 97 64 42 119 77 121 77 2 1 2 -97 -1 -217z m674 -1021 l637 -484
-18 -26 c-10 -14 -39 -66 -64 -116 -64 -128 -63 -128 -167 -109 -150 27 -338
2 -419 -56 -47 -33 -71 -88 -71 -163 0 -99 -23 -115 -282 -201 -168 -55 -230
-82 -283 -121 -31 -24 -40 -24 -192 1 l-33 5 174 347 c250 500 322 672 341
808 11 86 -44 224 -177 444 -35 58 -72 118 -83 134 -11 16 -15 27 -9 25 5 -2
296 -222 646 -488z m-1359 312 c203 -257 267 -352 288 -427 16 -54 -28 -194
-138 -441 -39 -89 -283 -597 -289 -604 -4 -4 -43 2 -175 30 l-46 10 54 137
c76 193 148 404 191 562 37 134 37 136 36 325 0 171 -14 326 -49 538 -2 15 -3
27 0 27 2 0 60 -71 128 -157z m-816 -1959 c-3 -3 -12 -4 -19 -1 -8 3 -5 6 6 6
11 1 17 -2 13 -5z m56 -11 c-7 -2 -21 -2 -30 0 -10 3 -4 5 12 5 17 0 24 -2 18
-5z m44 -9 c-3 -3 -12 -4 -19 -1 -8 3 -5 6 6 6 11 1 17 -2 13 -5z m56 -11 c-7
-2 -19 -2 -25 0 -7 3 -2 5 12 5 14 0 19 -2 13 -5z m50 -10 c-7 -2 -19 -2 -25
0 -7 3 -2 5 12 5 14 0 19 -2 13 -5z m97 -13 c17 -6 9 -7 -25 -3 -27 3 -52 7
-54 9 -8 7 54 2 79 -6z m370 -63 c146 -25 321 -53 389 -63 68 -10 119 -20 113
-22 -18 -6 -675 99 -807 128 l-40 9 40 -4 c22 -2 159 -24 305 -48z m568 -94
c-10 -2 -26 -2 -35 0 -10 3 -2 5 17 5 19 0 27 -2 18 -5z m65 -10 c-7 -2 -21
-2 -30 0 -10 3 -4 5 12 5 17 0 24 -2 18 -5z m65 -10 c-10 -2 -26 -2 -35 0 -10
3 -2 5 17 5 19 0 27 -2 18 -5z m65 -10 c-7 -2 -21 -2 -30 0 -10 3 -4 5 12 5
17 0 24 -2 18 -5z m65 -10 c-10 -2 -26 -2 -35 0 -10 3 -2 5 17 5 19 0 27 -2
18 -5z m65 -10 c-7 -2 -19 -2 -25 0 -7 3 -2 5 12 5 14 0 19 -2 13 -5z m75 -10
c-10 -2 -26 -2 -35 0 -10 3 -2 5 17 5 19 0 27 -2 18 -5z m69 -9 c-3 -3 -12 -4
-19 -1 -8 3 -5 6 6 6 11 1 17 -2 13 -5z"/>
<path d="M7297 6879 c-110 -12 -179 -38 -256 -94 -115 -85 -204 -224 -257
-403 -36 -119 -45 -313 -19 -408 48 -178 236 -339 465 -399 84 -22 288 -31
362 -16 70 15 179 68 241 118 127 103 233 287 267 463 25 128 -26 308 -132
466 -135 202 -249 268 -482 278 -55 3 -141 0 -189 -5z"/>
<path d="M2662 3550 c-12 -12 -22 -24 -22 -27 0 -4 11 4 25 17 23 22 29 30 22
30 -2 0 -13 -9 -25 -20z"/>
</g>
</svg>
